Output #0, mpeg, to '02.mpg':
    Stream #0:0: Video: mpeg1video, yuv420p, 640x480, q=2-31, 400 kb/s, 25 tbn
[mpeg @ 0x55558d9e3700] VBV buffer size not set, using default size of 230KB
If you want the mpeg file to be compliant to some specification
Like DVD, VCD or others, make sure you set the correct buffer size
视频编码
pts:0 pts_time:0 dts:-3600 dts_time:-0.04 duration:0 duration_time:0 stream_index:0
pts:3600 pts_time:0.04 dts:0 dts_time:0 duration:0 duration_time:0 stream_index:0
pts:7200 pts_time:0.08 dts:3600 dts_time:0.04 duration:0 duration_time:0 stream_index:0
pts:10800 pts_time:0.12 dts:7200 dts_time:0.08 duration:0 duration_time:0 stream_index:0
pts:14400 pts_time:0.16 dts:10800 dts_time:0.12 duration:0 duration_time:0 stream_index:0
pts:18000 pts_time:0.2 dts:14400 dts_time:0.16 duration:0 duration_time:0 stream_index:0
pts:21600 pts_time:0.24 dts:18000 dts_time:0.2 duration:0 duration_time:0 stream_index:0
pts:25200 pts_time:0.28 dts:21600 dts_time:0.24 duration:0 duration_time:0 stream_index:0
pts:28800 pts_time:0.32 dts:25200 dts_time:0.28 duration:0 duration_time:0 stream_index:0
pts:32400 pts_time:0.36 dts:28800 dts_time:0.32 duration:0 duration_time:0 stream_index:0
pts:36000 pts_time:0.4 dts:32400 dts_time:0.36 duration:0 duration_time:0 stream_index:0
pts:39600 pts_time:0.44 dts:36000 dts_time:0.4 duration:0 duration_time:0 stream_index:0
[mpeg @ 0x55558d9e3700] buffer underflow st=0 bufi=7662 size=13408
[mpeg @ 0x55558d9e3700] buffer underflow st=0 bufi=9703 size=13408
[mpeg @ 0x55558d9e3700] buffer underflow st=0 bufi=11744 size=13408
pts:43200 pts_time:0.48 dts:39600 dts_time:0.44 duration:0 duration_time:0 stream_index:0
[mpeg @ 0x55558d9e3700] buffer underflow st=0 bufi=368 size=8479
[mpeg @ 0x55558d9e3700] buffer underflow st=0 bufi=2409 size=8479
[mpeg @ 0x55558d9e3700] buffer underflow st=0 bufi=4450 size=8479
[mpeg @ 0x55558d9e3700] buffer underflow st=0 bufi=6491 size=8479
pts:46800 pts_time:0.52 dts:43200 dts_time:0.48 duration:0 duration_time:0 stream_index:0
[mpeg @ 0x55558d9e3700] buffer underflow st=0 bufi=44 size=2086
pts:50400 pts_time:0.56 dts:46800 dts_time:0.52 duration:0 duration_time:0 stream_index:0
[mpeg @ 0x55558d9e3700] buffer underflow st=0 bufi=2085 size=2086
pts:54000 pts_time:0.6 dts:50400 dts_time:0.56 duration:0 duration_time:0 stream_index:0
[mpeg @ 0x55558d9e3700] buffer underflow st=0 bufi=421 size=3520
[mpeg @ 0x55558d9e3700] buffer underflow st=0 bufi=2462 size=3520
pts:57600 pts_time:0.64 dts:54000 dts_time:0.6 duration:0 duration_time:0 stream_index:0
[mpeg @ 0x55558d9e3700] buffer underflow st=0 bufi=974 size=2027
pts:61200 pts_time:0.68 dts:57600 dts_time:0.64 duration:0 duration_time:0 stream_index:0
[mpeg @ 0x55558d9e3700] buffer underflow st=0 bufi=979 size=2035
pts:64800 pts_time:0.72 dts:61200 dts_time:0.68 duration:0 duration_time:0 stream_index:0
[mpeg @ 0x55558d9e3700] buffer underflow st=0 bufi=976 size=5946
[mpeg @ 0x55558d9e3700] buffer underflow st=0 bufi=3017 size=5946
[mpeg @ 0x55558d9e3700] buffer underflow st=0 bufi=5058 size=5946
pts:68400 pts_time:0.76 dts:64800 dts_time:0.72 duration:0 duration_time:0 stream_index:0
[mpeg @ 0x55558d9e3700] buffer underflow st=0 bufi=1144 size=1938
pts:72000 pts_time:0.8 dts:68400 dts_time:0.76 duration:0 duration_time:0 stream_index:0
[mpeg @ 0x55558d9e3700] buffer underflow st=0 bufi=1238 size=1362
pts:75600 pts_time:0.84 dts:72000 dts_time:0.8 duration:0 duration_time:0 stream_index:0
pts:79200 pts_time:0.88 dts:75600 dts_time:0.84 duration:0 duration_time:0 stream_index:0
[mpeg @ 0x55558d9e3700] buffer underflow st=0 bufi=645 size=3554
[mpeg @ 0x55558d9e3700] buffer underflow st=0 bufi=2686 size=3554
pts:82800 pts_time:0.92 dts:79200 dts_time:0.88 duration:0 duration_time:0 stream_index:0
[mpeg @ 0x55558d9e3700] buffer underflow st=0 bufi=1164 size=13856
[mpeg @ 0x55558d9e3700] buffer underflow st=0 bufi=3205 size=13856
[mpeg @ 0x55558d9e3700] buffer underflow st=0 bufi=5246 size=13856
[mpeg @ 0x55558d9e3700] buffer underflow st=0 bufi=7287 size=13856
[mpeg @ 0x55558d9e3700] buffer underflow st=0 bufi=9328 size=13856
[mpeg @ 0x55558d9e3700] buffer underflow st=0 bufi=11369 size=13856
[mpeg @ 0x55558d9e3700] buffer underflow st=0 bufi=13410 size=13856
pts:86400 pts_time:0.96 dts:82800 dts_time:0.92 duration:0 duration_time:0 stream_index:0
pts:90000 pts_time:1 dts:86400 dts_time:0.96 duration:0 duration_time:0 stream_index:0
[mpeg @ 0x55558d9e3700] buffer underflow st=0 bufi=768 size=2091
pts:93600 pts_time:1.04 dts:90000 dts_time:1 duration:0 duration_time:0 stream_index:0
[mpeg @ 0x55558d9e3700] buffer underflow st=0 bufi=709 size=5568
[mpeg @ 0x55558d9e3700] buffer underflow st=0 bufi=2750 size=5568
[mpeg @ 0x55558d9e3700] buffer underflow st=0 bufi=4791 size=5568
pts:97200 pts_time:1.08 dts:93600 dts_time:1.04 duration:0 duration_time:0 stream_index:0
[mpeg @ 0x55558d9e3700] buffer underflow st=0 bufi=1255 size=5401
[mpeg @ 0x55558d9e3700] buffer underflow st=0 bufi=3296 size=5401
[mpeg @ 0x55558d9e3700] buffer underflow st=0 bufi=5337 size=5401
pts:100800 pts_time:1.12 dts:97200 dts_time:1.08 duration:0 duration_time:0 stream_index:0
pts:104400 pts_time:1.16 dts:100800 dts_time:1.12 duration:0 duration_time:0 stream_index:0
pts:108000 pts_time:1.2 dts:104400 dts_time:1.16 duration:0 duration_time:0 stream_index:0
[mpeg @ 0x55558d9e3700] buffer underflow st=0 bufi=357 size=2653
[mpeg @ 0x55558d9e3700] buffer underflow st=0 bufi=2398 size=2653
pts:111600 pts_time:1.24 dts:108000 dts_time:1.2 duration:0 duration_time:0 stream_index:0
pts:115200 pts_time:1.28 dts:111600 dts_time:1.24 duration:0 duration_time:0 stream_index:0
[mpeg @ 0x55558d9e3700] buffer underflow st=0 bufi=439 size=1812
pts:118800 pts_time:1.32 dts:115200 dts_time:1.28 duration:0 duration_time:0 stream_index:0
[mpeg @ 0x55558d9e3700] buffer underflow st=0 bufi=659 size=1419
pts:122400 pts_time:1.36 dts:118800 dts_time:1.32 duration:0 duration_time:0 stream_index:0
pts:126000 pts_time:1.4 dts:122400 dts_time:1.36 duration:0 duration_time:0 stream_index:0
[mpeg @ 0x55558d9e3700] buffer underflow st=0 bufi=397 size=13924
[mpeg @ 0x55558d9e3700] buffer underflow st=0 bufi=2438 size=13924
[mpeg @ 0x55558d9e3700] buffer underflow st=0 bufi=4479 size=13924
[mpeg @ 0x55558d9e3700] buffer underflow st=0 bufi=6520 size=13924
[mpeg @ 0x55558d9e3700] buffer underflow st=0 bufi=8561 size=13924
[mpeg @ 0x55558d9e3700] buffer underflow st=0 bufi=10602 size=13924
[mpeg @ 0x55558d9e3700] buffer underflow st=0 bufi=12643 size=13924
pts:129600 pts_time:1.44 dts:126000 dts_time:1.4 duration:0 duration_time:0 stream_index:0
[mpeg @ 0x55558d9e3700] buffer underflow st=0 bufi=751 size=3573
[mpeg @ 0x55558d9e3700] buffer underflow st=0 bufi=2792 size=3573
pts:133200 pts_time:1.48 dts:129600 dts_time:1.44 duration:0 duration_time:0 stream_index:0
pts:136800 pts_time:1.52 dts:133200 dts_time:1.48 duration:0 duration_time:0 stream_index:0
pts:140400 pts_time:1.56 dts:136800 dts_time:1.52 duration:0 duration_time:0 stream_index:0
[mpeg @ 0x55558d9e3700] buffer underflow st=0 bufi=18 size=2785
[mpeg @ 0x55558d9e3700] buffer underflow st=0 bufi=2059 size=2785
pts:144000 pts_time:1.6 dts:140400 dts_time:1.56 duration:0 duration_time:0 stream_index:0
pts:147600 pts_time:1.64 dts:144000 dts_time:1.6 duration:0 duration_time:0 stream_index:0
[mpeg @ 0x55558d9e3700] buffer underflow st=0 bufi=905 size=2591
pts:151200 pts_time:1.68 dts:147600 dts_time:1.64 duration:0 duration_time:0 stream_index:0
pts:154800 pts_time:1.72 dts:151200 dts_time:1.68 duration:0 duration_time:0 stream_index:0
[mpeg @ 0x55558d9e3700] buffer underflow st=0 bufi=110 size=2306
[mpeg @ 0x55558d9e3700] buffer underflow st=0 bufi=2151 size=2306
pts:158400 pts_time:1.76 dts:154800 dts_time:1.72 duration:0 duration_time:0 stream_index:0
[mpeg @ 0x55558d9e3700] buffer underflow st=0 bufi=1877 size=5552
[mpeg @ 0x55558d9e3700] buffer underflow st=0 bufi=3918 size=5552
pts:162000 pts_time:1.8 dts:158400 dts_time:1.76 duration:0 duration_time:0 stream_index:0
[mpeg @ 0x55558d9e3700] buffer underflow st=0 bufi=398 size=5276
[mpeg @ 0x55558d9e3700] buffer underflow st=0 bufi=2439 size=5276
[mpeg @ 0x55558d9e3700] buffer underflow st=0 bufi=4480 size=5276
pts:165600 pts_time:1.84 dts:162000 dts_time:1.8 duration:0 duration_time:0 stream_index:0
pts:169200 pts_time:1.88 dts:165600 dts_time:1.84 duration:0 duration_time:0 stream_index:0
[mpeg @ 0x55558d9e3700] buffer underflow st=0 bufi=148 size=12300
[mpeg @ 0x55558d9e3700] buffer underflow st=0 bufi=2189 size=12300
[mpeg @ 0x55558d9e3700] buffer underflow st=0 bufi=4230 size=12300
[mpeg @ 0x55558d9e3700] buffer underflow st=0 bufi=6271 size=12300
[mpeg @ 0x55558d9e3700] buffer underflow st=0 bufi=8312 size=12300
[mpeg @ 0x55558d9e3700] buffer underflow st=0 bufi=10353 size=12300
pts:172800 pts_time:1.92 dts:169200 dts_time:1.88 duration:0 duration_time:0 stream_index:0
[mpeg @ 0x55558d9e3700] buffer underflow st=0 bufi=85 size=929
pts:176400 pts_time:1.96 dts:172800 dts_time:1.92 duration:0 duration_time:0 stream_index:0
pts:180000 pts_time:2 dts:176400 dts_time:1.96 duration:0 duration_time:0 stream_index:0
[mpeg @ 0x55558d9e3700] buffer underflow st=0 bufi=597 size=1732
pts:183600 pts_time:2.04 dts:180000 dts_time:2 duration:0 duration_time:0 stream_index:0
[mpeg @ 0x55558d9e3700] buffer underflow st=0 bufi=897 size=1207
pts:187200 pts_time:2.08 dts:183600 dts_time:2.04 duration:0 duration_time:0 stream_index:0
pts:190800 pts_time:2.12 dts:187200 dts_time:2.08 duration:0 duration_time:0 stream_index:0
[mpeg @ 0x55558d9e3700] buffer underflow st=0 bufi=545 size=1002
pts:194400 pts_time:2.16 dts:190800 dts_time:2.12 duration:0 duration_time:0 stream_index:0
[mpeg @ 0x55558d9e3700] buffer underflow st=0 bufi=1575 size=6081
[mpeg @ 0x55558d9e3700] buffer underflow st=0 bufi=3616 size=6081
[mpeg @ 0x55558d9e3700] buffer underflow st=0 bufi=5657 size=6081
pts:198000 pts_time:2.2 dts:194400 dts_time:2.16 duration:0 duration_time:0 stream_index:0
[mpeg @ 0x55558d9e3700] buffer underflow st=0 bufi=1608 size=2226
pts:201600 pts_time:2.24 dts:198000 dts_time:2.2 duration:0 duration_time:0 stream_index:0
pts:205200 pts_time:2.28 dts:201600 dts_time:2.24 duration:0 duration_time:0 stream_index:0
[mpeg @ 0x55558d9e3700] buffer underflow st=0 bufi=172 size=1060
pts:208800 pts_time:2.32 dts:205200 dts_time:2.28 duration:0 duration_time:0 stream_index:0
pts:212400 pts_time:2.36 dts:208800 dts_time:2.32 duration:0 duration_time:0 stream_index:0
[mpeg @ 0x55558d9e3700] buffer underflow st=0 bufi=145 size=14430
[mpeg @ 0x55558d9e3700] buffer underflow st=0 bufi=2186 size=14430
[mpeg @ 0x55558d9e3700] buffer underflow st=0 bufi=4227 size=14430
[mpeg @ 0x55558d9e3700] buffer underflow st=0 bufi=6268 size=14430
[mpeg @ 0x55558d9e3700] buffer underflow st=0 bufi=8309 size=14430
[mpeg @ 0x55558d9e3700] buffer underflow st=0 bufi=10350 size=14430
[mpeg @ 0x55558d9e3700] buffer underflow st=0 bufi=12391 size=14430
pts:216000 pts_time:2.4 dts:212400 dts_time:2.36 duration:0 duration_time:0 stream_index:0
[mpeg @ 0x55558d9e3700] buffer underflow st=0 bufi=14420 size=14430
pts:219600 pts_time:2.44 dts:216000 dts_time:2.4 duration:0 duration_time:0 stream_index:0
[mpeg @ 0x55558d9e3700] buffer underflow st=0 bufi=784 size=1400
pts:223200 pts_time:2.48 dts:219600 dts_time:2.44 duration:0 duration_time:0 stream_index:0
pts:226800 pts_time:2.52 dts:223200 dts_time:2.48 duration:0 duration_time:0 stream_index:0
[mpeg @ 0x55558d9e3700] buffer underflow st=0 bufi=462 size=1277
pts:230400 pts_time:2.56 dts:226800 dts_time:2.52 duration:0 duration_time:0 stream_index:0
[mpeg @ 0x55558d9e3700] buffer underflow st=0 bufi=1217 size=5282
[mpeg @ 0x55558d9e3700] buffer underflow st=0 bufi=3258 size=5282
pts:234000 pts_time:2.6 dts:230400 dts_time:2.56 duration:0 duration_time:0 stream_index:0
[mpeg @ 0x55558d9e3700] buffer underflow st=0 bufi=8 size=4944
[mpeg @ 0x55558d9e3700] buffer underflow st=0 bufi=2049 size=4944
[mpeg @ 0x55558d9e3700] buffer underflow st=0 bufi=4090 size=4944
pts:237600 pts_time:2.64 dts:234000 dts_time:2.6 duration:0 duration_time:0 stream_index:0
pts:241200 pts_time:2.68 dts:237600 dts_time:2.64 duration:0 duration_time:0 stream_index:0
pts:244800 pts_time:2.72 dts:241200 dts_time:2.68 duration:0 duration_time:0 stream_index:0
[mpeg @ 0x55558d9e3700] buffer underflow st=0 bufi=7 size=2022
pts:248400 pts_time:2.76 dts:244800 dts_time:2.72 duration:0 duration_time:0 stream_index:0
[mpeg @ 0x55558d9e3700] buffer underflow st=0 bufi=17 size=2834
[mpeg @ 0x55558d9e3700] buffer underflow st=0 bufi=2058 size=2834
pts:252000 pts_time:2.8 dts:248400 dts_time:2.76 duration:0 duration_time:0 stream_index:0
[mpeg @ 0x55558d9e3700] buffer underflow st=0 bufi=1256 size=1448
pts:255600 pts_time:2.84 dts:252000 dts_time:2.8 duration:0 duration_time:0 stream_index:0
[mpeg @ 0x55558d9e3700] buffer underflow st=0 bufi=1840 size=14004
[mpeg @ 0x55558d9e3700] buffer underflow st=0 bufi=3881 size=14004
[mpeg @ 0x55558d9e3700] buffer underflow st=0 bufi=5922 size=14004
[mpeg @ 0x55558d9e3700] buffer underflow st=0 bufi=7963 size=14004
[mpeg @ 0x55558d9e3700] buffer underflow st=0 bufi=10004 size=14004
[mpeg @ 0x55558d9e3700] buffer underflow st=0 bufi=12045 size=14004
pts:259200 pts_time:2.88 dts:255600 dts_time:2.84 duration:0 duration_time:0 stream_index:0
[mpeg @ 0x55558d9e3700] buffer underflow st=0 bufi=73 size=1793
pts:262800 pts_time:2.92 dts:259200 dts_time:2.88 duration:0 duration_time:0 stream_index:0
[mpeg @ 0x55558d9e3700] buffer underflow st=0 bufi=312 size=1875
pts:266400 pts_time:2.96 dts:262800 dts_time:2.92 duration:0 duration_time:0 stream_index:0
[mpeg @ 0x55558d9e3700] buffer underflow st=0 bufi=469 size=5426
[mpeg @ 0x55558d9e3700] buffer underflow st=0 bufi=2510 size=5426
[mpeg @ 0x55558d9e3700] buffer underflow st=0 bufi=4551 size=5426
pts:270000 pts_time:3 dts:266400 dts_time:2.96 duration:0 duration_time:0 stream_index:0
[mpeg @ 0x55558d9e3700] buffer underflow st=0 bufi=1157 size=4399
[mpeg @ 0x55558d9e3700] buffer underflow st=0 bufi=3198 size=4399
pts:273600 pts_time:3.04 dts:270000 dts_time:3 duration:0 duration_time:0 stream_index:0
[mpeg @ 0x55558d9e3700] buffer underflow st=0 bufi=831 size=4489
[mpeg @ 0x55558d9e3700] buffer underflow st=0 bufi=2872 size=4489
pts:277200 pts_time:3.08 dts:273600 dts_time:3.04 duration:0 duration_time:0 stream_index:0
[mpeg @ 0x55558d9e3700] buffer underflow st=0 bufi=415 size=5342
[mpeg @ 0x55558d9e3700] buffer underflow st=0 bufi=2456 size=5342
[mpeg @ 0x55558d9e3700] buffer underflow st=0 bufi=4497 size=5342
pts:280800 pts_time:3.12 dts:277200 dts_time:3.08 duration:0 duration_time:0 stream_index:0
[mpeg @ 0x55558d9e3700] buffer underflow st=0 bufi=1187 size=7054
[mpeg @ 0x55558d9e3700] buffer underflow st=0 bufi=3228 size=7054
[mpeg @ 0x55558d9e3700] buffer underflow st=0 bufi=5269 size=7054
pts:284400 pts_time:3.16 dts:280800 dts_time:3.12 duration:0 duration_time:0 stream_index:0
[mpeg @ 0x55558d9e3700] buffer underflow st=0 bufi=247 size=5543
[mpeg @ 0x55558d9e3700] buffer underflow st=0 bufi=2288 size=5543
[mpeg @ 0x55558d9e3700] buffer underflow st=0 bufi=4329 size=5543
pts:288000 pts_time:3.2 dts:284400 dts_time:3.16 duration:0 duration_time:0 stream_index:0
[mpeg @ 0x55558d9e3700] buffer underflow st=0 bufi=818 size=4773
[mpeg @ 0x55558d9e3700] buffer underflow st=0 bufi=2859 size=4773
pts:291600 pts_time:3.24 dts:288000 dts_time:3.2 duration:0 duration_time:0 stream_index:0
[mpeg @ 0x55558d9e3700] buffer underflow st=0 bufi=118 size=5741
[mpeg @ 0x55558d9e3700] buffer underflow st=0 bufi=2159 size=5741
[mpeg @ 0x55558d9e3700] buffer underflow st=0 bufi=4200 size=5741
pts:295200 pts_time:3.28 dts:291600 dts_time:3.24 duration:0 duration_time:0 stream_index:0
[mpeg @ 0x55558d9e3700] buffer underflow st=0 bufi=491 size=4206
[mpeg @ 0x55558d9e3700] buffer underflow st=0 bufi=2532 size=4206
pts:298800 pts_time:3.32 dts:295200 dts_time:3.28 duration:0 duration_time:0 stream_index:0
[mpeg @ 0x55558d9e3700] buffer underflow st=0 bufi=358 size=3077
[mpeg @ 0x55558d9e3700] buffer underflow st=0 bufi=2399 size=3077
pts:302400 pts_time:3.36 dts:298800 dts_time:3.32 duration:0 duration_time:0 stream_index:0
[mpeg @ 0x55558d9e3700] buffer underflow st=0 bufi=1354 size=3025
pts:306000 pts_time:3.4 dts:302400 dts_time:3.36 duration:0 duration_time:0 stream_index:0
[mpeg @ 0x55558d9e3700] buffer underflow st=0 bufi=361 size=3073
[mpeg @ 0x55558d9e3700] buffer underflow st=0 bufi=2402 size=3073
pts:309600 pts_time:3.44 dts:306000 dts_time:3.4 duration:0 duration_time:0 stream_index:0
[mpeg @ 0x55558d9e3700] buffer underflow st=0 bufi=1361 size=3117
pts:313200 pts_time:3.48 dts:309600 dts_time:3.44 duration:0 duration_time:0 stream_index:0
[mpeg @ 0x55558d9e3700] buffer underflow st=0 bufi=276 size=3140
[mpeg @ 0x55558d9e3700] buffer underflow st=0 bufi=2317 size=3140
pts:316800 pts_time:3.52 dts:313200 dts_time:3.48 duration:0 duration_time:0 stream_index:0
[mpeg @ 0x55558d9e3700] buffer underflow st=0 bufi=1209 size=1972
pts:320400 pts_time:3.56 dts:316800 dts_time:3.52 duration:0 duration_time:0 stream_index:0
[mpeg @ 0x55558d9e3700] buffer underflow st=0 bufi=1257 size=1490
pts:324000 pts_time:3.6 dts:320400 dts_time:3.56 duration:0 duration_time:0 stream_index:0
pts:327600 pts_time:3.64 dts:324000 dts_time:3.6 duration:0 duration_time:0 stream_index:0
[mpeg @ 0x55558d9e3700] buffer underflow st=0 bufi=223 size=919
pts:331200 pts_time:3.68 dts:327600 dts_time:3.64 duration:0 duration_time:0 stream_index:0
[mpeg @ 0x55558d9e3700] buffer underflow st=0 bufi=1336 size=2343
pts:334800 pts_time:3.72 dts:331200 dts_time:3.68 duration:0 duration_time:0 stream_index:0
[mpeg @ 0x55558d9e3700] buffer underflow st=0 bufi=1025 size=6213
[mpeg @ 0x55558d9e3700] buffer underflow st=0 bufi=3066 size=6213
[mpeg @ 0x55558d9e3700] buffer underflow st=0 bufi=5107 size=6213
pts:338400 pts_time:3.76 dts:334800 dts_time:3.72 duration:0 duration_time:0 stream_index:0
[mpeg @ 0x55558d9e3700] buffer underflow st=0 bufi=926 size=3142
[mpeg @ 0x55558d9e3700] buffer underflow st=0 bufi=2967 size=3142
pts:342000 pts_time:3.8 dts:338400 dts_time:3.76 duration:0 duration_time:0 stream_index:0
[mpeg @ 0x55558d9e3700] buffer underflow st=0 bufi=1857 size=2675
pts:345600 pts_time:3.84 dts:342000 dts_time:3.8 duration:0 duration_time:0 stream_index:0
[mpeg @ 0x55558d9e3700] buffer underflow st=0 bufi=1214 size=2515
pts:349200 pts_time:3.88 dts:345600 dts_time:3.84 duration:0 duration_time:0 stream_index:0
[mpeg @ 0x55558d9e3700] buffer underflow st=0 bufi=731 size=2980
[mpeg @ 0x55558d9e3700] buffer underflow st=0 bufi=2772 size=2980
pts:352800 pts_time:3.92 dts:349200 dts_time:3.88 duration:0 duration_time:0 stream_index:0
[mpeg @ 0x55558d9e3700] buffer underflow st=0 bufi=1824 size=4059
[mpeg @ 0x55558d9e3700] buffer underflow st=0 bufi=3865 size=4059
pts:356400 pts_time:3.96 dts:352800 dts_time:3.92 duration:0 duration_time:0 stream_index:0
pts:360000 pts_time:4 dts:356400 dts_time:3.96 duration:0 duration_time:0 stream_index:0
[mpeg @ 0x55558d9e3700] buffer underflow st=0 bufi=1661 size=12614
[mpeg @ 0x55558d9e3700] buffer underflow st=0 bufi=3702 size=12614
[mpeg @ 0x55558d9e3700] buffer underflow st=0 bufi=5743 size=12614
[mpeg @ 0x55558d9e3700] buffer underflow st=0 bufi=7784 size=12614
[mpeg @ 0x55558d9e3700] buffer underflow st=0 bufi=9825 size=12614
[mpeg @ 0x55558d9e3700] buffer underflow st=0 bufi=11866 size=12614
pts:363600 pts_time:4.04 dts:360000 dts_time:4 duration:0 duration_time:0 stream_index:0
[mpeg @ 0x55558d9e3700] buffer underflow st=0 bufi=1284 size=2227
pts:367200 pts_time:4.08 dts:363600 dts_time:4.04 duration:0 duration_time:0 stream_index:0
[mpeg @ 0x55558d9e3700] buffer underflow st=0 bufi=1089 size=2579
pts:370800 pts_time:4.12 dts:367200 dts_time:4.08 duration:0 duration_time:0 stream_index:0
[mpeg @ 0x55558d9e3700] buffer underflow st=0 bufi=542 size=3739
[mpeg @ 0x55558d9e3700] buffer underflow st=0 bufi=2583 size=3739
pts:374400 pts_time:4.16 dts:370800 dts_time:4.12 duration:0 duration_time:0 stream_index:0
[mpeg @ 0x55558d9e3700] buffer underflow st=0 bufi=876 size=2328
pts:378000 pts_time:4.2 dts:374400 dts_time:4.16 duration:0 duration_time:0 stream_index:0
[mpeg @ 0x55558d9e3700] buffer underflow st=0 bufi=580 size=14187
[mpeg @ 0x55558d9e3700] buffer underflow st=0 bufi=2621 size=14187
[mpeg @ 0x55558d9e3700] buffer underflow st=0 bufi=4662 size=14187
[mpeg @ 0x55558d9e3700] buffer underflow st=0 bufi=6703 size=14187
[mpeg @ 0x55558d9e3700] buffer underflow st=0 bufi=8744 size=14187
[mpeg @ 0x55558d9e3700] buffer underflow st=0 bufi=10785 size=14187
[mpeg @ 0x55558d9e3700] buffer underflow st=0 bufi=12826 size=14187
pts:381600 pts_time:4.24 dts:378000 dts_time:4.2 duration:0 duration_time:0 stream_index:0
[mpeg @ 0x55558d9e3700] buffer underflow st=0 bufi=671 size=4228
[mpeg @ 0x55558d9e3700] buffer underflow st=0 bufi=2712 size=4228
pts:385200 pts_time:4.28 dts:381600 dts_time:4.24 duration:0 duration_time:0 stream_index:0
[mpeg @ 0x55558d9e3700] buffer underflow st=0 bufi=516 size=3803
[mpeg @ 0x55558d9e3700] buffer underflow st=0 bufi=2557 size=3803
pts:388800 pts_time:4.32 dts:385200 dts_time:4.28 duration:0 duration_time:0 stream_index:0
[mpeg @ 0x55558d9e3700] buffer underflow st=0 bufi=786 size=2491
pts:392400 pts_time:4.36 dts:388800 dts_time:4.32 duration:0 duration_time:0 stream_index:0
[mpeg @ 0x55558d9e3700] buffer underflow st=0 bufi=327 size=3067
[mpeg @ 0x55558d9e3700] buffer underflow st=0 bufi=2368 size=3067
pts:396000 pts_time:4.4 dts:392400 dts_time:4.36 duration:0 duration_time:0 stream_index:0
[mpeg @ 0x55558d9e3700] buffer underflow st=0 bufi=1333 size=2417
pts:399600 pts_time:4.44 dts:396000 dts_time:4.4 duration:0 duration_time:0 stream_index:0
[mpeg @ 0x55558d9e3700] buffer underflow st=0 bufi=948 size=1725
pts:403200 pts_time:4.48 dts:399600 dts_time:4.44 duration:0 duration_time:0 stream_index:0
[mpeg @ 0x55558d9e3700] buffer underflow st=0 bufi=1255 size=6035
[mpeg @ 0x55558d9e3700] buffer underflow st=0 bufi=3296 size=6035
[mpeg @ 0x55558d9e3700] buffer underflow st=0 bufi=5337 size=6035
pts:406800 pts_time:4.52 dts:403200 dts_time:4.48 duration:0 duration_time:0 stream_index:0
[mpeg @ 0x55558d9e3700] buffer underflow st=0 bufi=1334 size=2361
pts:410400 pts_time:4.56 dts:406800 dts_time:4.52 duration:0 duration_time:0 stream_index:0
[mpeg @ 0x55558d9e3700] buffer underflow st=0 bufi=1005 size=2100
pts:414000 pts_time:4.6 dts:410400 dts_time:4.56 duration:0 duration_time:0 stream_index:0
[mpeg @ 0x55558d9e3700] buffer underflow st=0 bufi=937 size=3507
[mpeg @ 0x55558d9e3700] buffer underflow st=0 bufi=2978 size=3507
pts:417600 pts_time:4.64 dts:414000 dts_time:4.6 duration:0 duration_time:0 stream_index:0
[mpeg @ 0x55558d9e3700] buffer underflow st=0 bufi=1503 size=2480
pts:421200 pts_time:4.68 dts:417600 dts_time:4.64 duration:0 duration_time:0 stream_index:0
[mpeg @ 0x55558d9e3700] buffer underflow st=0 bufi=1055 size=11812
[mpeg @ 0x55558d9e3700] buffer underflow st=0 bufi=3096 size=11812
[mpeg @ 0x55558d9e3700] buffer underflow st=0 bufi=5137 size=11812
[mpeg @ 0x55558d9e3700] buffer underflow st=0 bufi=7166 size=11812
[mpeg @ 0x55558d9e3700] buffer underflow st=0 bufi=9207 size=11812
[mpeg @ 0x55558d9e3700] buffer underflow st=0 bufi=11248 size=11812
pts:424800 pts_time:4.72 dts:421200 dts_time:4.68 duration:0 duration_time:0 stream_index:0
[mpeg @ 0x55558d9e3700] buffer underflow st=0 bufi=1468 size=4185
[mpeg @ 0x55558d9e3700] buffer underflow st=0 bufi=3509 size=4185
pts:428400 pts_time:4.76 dts:424800 dts_time:4.72 duration:0 duration_time:0 stream_index:0
[mpeg @ 0x55558d9e3700] buffer underflow st=0 bufi=1356 size=2581
pts:432000 pts_time:4.8 dts:428400 dts_time:4.76 duration:0 duration_time:0 stream_index:0
[mpeg @ 0x55558d9e3700] buffer underflow st=0 bufi=807 size=2320
pts:435600 pts_time:4.84 dts:432000 dts_time:4.8 duration:0 duration_time:0 stream_index:0
[mpeg @ 0x55558d9e3700] buffer underflow st=0 bufi=519 size=3042
[mpeg @ 0x55558d9e3700] buffer underflow st=0 bufi=2560 size=3042
pts:439200 pts_time:4.88 dts:435600 dts_time:4.84 duration:0 duration_time:0 stream_index:0
[mpeg @ 0x55558d9e3700] buffer underflow st=0 bufi=1550 size=1614
pts:442800 pts_time:4.92 dts:439200 dts_time:4.88 duration:0 duration_time:0 stream_index:0
[mpeg @ 0x55558d9e3700] buffer underflow st=0 bufi=1968 size=3074
pts:446400 pts_time:4.96 dts:442800 dts_time:4.92 duration:0 duration_time:0 stream_index:0
[mpeg @ 0x55558d9e3700] buffer underflow st=0 bufi=926 size=4065
[mpeg @ 0x55558d9e3700] buffer underflow st=0 bufi=2967 size=4065
pts:450000 pts_time:5 dts:446400 dts_time:4.96 duration:0 duration_time:0 stream_index:0
[mpeg @ 0x55558d9e3700] buffer underflow st=0 bufi=934 size=2054
pts:453600 pts_time:5.04 dts:450000 dts_time:5 duration:0 duration_time:0 stream_index:0
[mpeg @ 0x55558d9e3700] buffer underflow st=0 bufi=912 size=2418
pts:457200 pts_time:5.08 dts:453600 dts_time:5.04 duration:0 duration_time:0 stream_index:0
[mpeg @ 0x55558d9e3700] buffer underflow st=0 bufi=526 size=3180
[mpeg @ 0x55558d9e3700] buffer underflow st=0 bufi=2567 size=3180
pts:460800 pts_time:5.12 dts:457200 dts_time:5.08 duration:0 duration_time:0 stream_index:0
[mpeg @ 0x55558d9e3700] buffer underflow st=0 bufi=1419 size=2463
pts:464400 pts_time:5.16 dts:460800 dts_time:5.12 duration:0 duration_time:0 stream_index:0
[mpeg @ 0x55558d9e3700] buffer underflow st=0 bufi=988 size=11484
[mpeg @ 0x55558d9e3700] buffer underflow st=0 bufi=3029 size=11484
[mpeg @ 0x55558d9e3700] buffer underflow st=0 bufi=5070 size=11484
[mpeg @ 0x55558d9e3700] buffer underflow st=0 bufi=7111 size=11484
[mpeg @ 0x55558d9e3700] buffer underflow st=0 bufi=9152 size=11484
[mpeg @ 0x55558d9e3700] buffer underflow st=0 bufi=11193 size=11484
pts:468000 pts_time:5.2 dts:464400 dts_time:5.16 duration:0 duration_time:0 stream_index:0
[mpeg @ 0x55558d9e3700] buffer underflow st=0 bufi=1741 size=4576
[mpeg @ 0x55558d9e3700] buffer underflow st=0 bufi=3782 size=4576
pts:471600 pts_time:5.24 dts:468000 dts_time:5.2 duration:0 duration_time:0 stream_index:0
[mpeg @ 0x55558d9e3700] buffer underflow st=0 bufi=1238 size=3192
pts:475200 pts_time:5.28 dts:471600 dts_time:5.24 duration:0 duration_time:0 stream_index:0
[mpeg @ 0x55558d9e3700] buffer underflow st=0 bufi=78 size=2686
[mpeg @ 0x55558d9e3700] buffer underflow st=0 bufi=2119 size=2686
pts:478800 pts_time:5.32 dts:475200 dts_time:5.28 duration:0 duration_time:0 stream_index:0
[mpeg @ 0x55558d9e3700] buffer underflow st=0 bufi=1465 size=2302
pts:482400 pts_time:5.36 dts:478800 dts_time:5.32 duration:0 duration_time:0 stream_index:0
[mpeg @ 0x55558d9e3700] buffer underflow st=0 bufi=1195 size=3372
[mpeg @ 0x55558d9e3700] buffer underflow st=0 bufi=3236 size=3372
pts:486000 pts_time:5.4 dts:482400 dts_time:5.36 duration:0 duration_time:0 stream_index:0
pts:489600 pts_time:5.44 dts:486000 dts_time:5.4 duration:0 duration_time:0 stream_index:0
[mpeg @ 0x55558d9e3700] buffer underflow st=0 bufi=4 size=2629
[mpeg @ 0x55558d9e3700] buffer underflow st=0 bufi=2045 size=2629
pts:493200 pts_time:5.48 dts:489600 dts_time:5.44 duration:0 duration_time:0 stream_index:0
[mpeg @ 0x55558d9e3700] buffer underflow st=0 bufi=1448 size=2717
pts:496800 pts_time:5.52 dts:493200 dts_time:5.48 duration:0 duration_time:0 stream_index:0
[mpeg @ 0x55558d9e3700] buffer underflow st=0 bufi=763 size=2537
pts:500400 pts_time:5.56 dts:496800 dts_time:5.52 duration:0 duration_time:0 stream_index:0
[mpeg @ 0x55558d9e3700] buffer underflow st=0 bufi=258 size=3292
[mpeg @ 0x55558d9e3700] buffer underflow st=0 bufi=2299 size=3292
pts:504000 pts_time:5.6 dts:500400 dts_time:5.56 duration:0 duration_time:0 stream_index:0
[mpeg @ 0x55558d9e3700] buffer underflow st=0 bufi=1039 size=2340
pts:507600 pts_time:5.64 dts:504000 dts_time:5.6 duration:0 duration_time:0 stream_index:0
[mpeg @ 0x55558d9e3700] buffer underflow st=0 bufi=731 size=9919
[mpeg @ 0x55558d9e3700] buffer underflow st=0 bufi=2772 size=9919
[mpeg @ 0x55558d9e3700] buffer underflow st=0 bufi=4813 size=9919
[mpeg @ 0x55558d9e3700] buffer underflow st=0 bufi=6854 size=9919
[mpeg @ 0x55558d9e3700] buffer underflow st=0 bufi=8895 size=9919
pts:511200 pts_time:5.68 dts:507600 dts_time:5.64 duration:0 duration_time:0 stream_index:0
[mpeg @ 0x55558d9e3700] buffer underflow st=0 bufi=1008 size=3168
[mpeg @ 0x55558d9e3700] buffer underflow st=0 bufi=3049 size=3168
pts:514800 pts_time:5.72 dts:511200 dts_time:5.68 duration:0 duration_time:0 stream_index:0
[mpeg @ 0x55558d9e3700] buffer underflow st=0 bufi=1913 size=2956
pts:518400 pts_time:5.76 dts:514800 dts_time:5.72 duration:0 duration_time:0 stream_index:0
[mpeg @ 0x55558d9e3700] buffer underflow st=0 bufi=989 size=2000
pts:522000 pts_time:5.8 dts:518400 dts_time:5.76 duration:0 duration_time:0 stream_index:0
[mpeg @ 0x55558d9e3700] buffer underflow st=0 bufi=1021 size=2115
pts:525600 pts_time:5.84 dts:522000 dts_time:5.8 duration:0 duration_time:0 stream_index:0
[mpeg @ 0x55558d9e3700] buffer underflow st=0 bufi=938 size=2896
pts:529200 pts_time:5.88 dts:525600 dts_time:5.84 duration:0 duration_time:0 stream_index:0
[mpeg @ 0x55558d9e3700] buffer underflow st=0 bufi=74 size=1900
pts:532800 pts_time:5.92 dts:529200 dts_time:5.88 duration:0 duration_time:0 stream_index:0
[mpeg @ 0x55558d9e3700] buffer underflow st=0 bufi=206 size=2236
pts:536400 pts_time:5.96 dts:532800 dts_time:5.92 duration:0 duration_time:0 stream_index:0
[mpeg @ 0x55558d9e3700] buffer underflow st=0 bufi=2220 size=2236
[mpeg @ 0x55558d9e3700] buffer underflow st=0 bufi=2016 size=2046
pts:540000 pts_time:6 dts:536400 dts_time:5.96 duration:0 duration_time:0 stream_index:0
[mpeg @ 0x55558d9e3700] buffer underflow st=0 bufi=2002 size=2063
pts:543600 pts_time:6.04 dts:540000 dts_time:6 duration:0 duration_time:0 stream_index:0
[mpeg @ 0x55558d9e3700] buffer underflow st=0 bufi=1971 size=2913
pts:547200 pts_time:6.08 dts:543600 dts_time:6.04 duration:0 duration_time:0 stream_index:0
[mpeg @ 0x55558d9e3700] buffer underflow st=0 bufi=1090 size=1864
pts:550800 pts_time:6.12 dts:547200 dts_time:6.08 duration:0 duration_time:0 stream_index:0
[mpeg @ 0x55558d9e3700] buffer underflow st=0 bufi=1258 size=10148
[mpeg @ 0x55558d9e3700] buffer underflow st=0 bufi=3299 size=10148
[mpeg @ 0x55558d9e3700] buffer underflow st=0 bufi=5340 size=10148
[mpeg @ 0x55558d9e3700] buffer underflow st=0 bufi=7381 size=10148
[mpeg @ 0x55558d9e3700] buffer underflow st=0 bufi=9422 size=10148
pts:554400 pts_time:6.16 dts:550800 dts_time:6.12 duration:0 duration_time:0 stream_index:0
[mpeg @ 0x55558d9e3700] buffer underflow st=0 bufi=1306 size=3177
pts:558000 pts_time:6.2 dts:554400 dts_time:6.16 duration:0 duration_time:0 stream_index:0
[mpeg @ 0x55558d9e3700] buffer underflow st=0 bufi=161 size=2781
[mpeg @ 0x55558d9e3700] buffer underflow st=0 bufi=2202 size=2781
pts:561600 pts_time:6.24 dts:558000 dts_time:6.2 duration:0 duration_time:0 stream_index:0
[mpeg @ 0x55558d9e3700] buffer underflow st=0 bufi=1453 size=1874
pts:565200 pts_time:6.28 dts:561600 dts_time:6.24 duration:0 duration_time:0 stream_index:0
[mpeg @ 0x55558d9e3700] buffer underflow st=0 bufi=1611 size=2473
pts:568800 pts_time:6.32 dts:565200 dts_time:6.28 duration:0 duration_time:0 stream_index:0
[mpeg @ 0x55558d9e3700] buffer underflow st=0 bufi=1170 size=2141
pts:572400 pts_time:6.36 dts:568800 dts_time:6.32 duration:0 duration_time:0 stream_index:0
[mpeg @ 0x55558d9e3700] buffer underflow st=0 bufi=1061 size=2272
pts:576000 pts_time:6.4 dts:572400 dts_time:6.36 duration:0 duration_time:0 stream_index:0
[mpeg @ 0x55558d9e3700] buffer underflow st=0 bufi=821 size=2591
pts:579600 pts_time:6.44 dts:576000 dts_time:6.4 duration:0 duration_time:0 stream_index:0
[mpeg @ 0x55558d9e3700] buffer underflow st=0 bufi=262 size=2264
pts:583200 pts_time:6.48 dts:579600 dts_time:6.44 duration:0 duration_time:0 stream_index:0
[mpeg @ 0x55558d9e3700] buffer underflow st=0 bufi=30 size=2276
[mpeg @ 0x55558d9e3700] buffer underflow st=0 bufi=2071 size=2276
pts:586800 pts_time:6.52 dts:583200 dts_time:6.48 duration:0 duration_time:0 stream_index:0
[mpeg @ 0x55558d9e3700] buffer underflow st=0 bufi=1827 size=2944
pts:590400 pts_time:6.56 dts:586800 dts_time:6.52 duration:0 duration_time:0 stream_index:0
[mpeg @ 0x55558d9e3700] buffer underflow st=0 bufi=915 size=2098
pts:594000 pts_time:6.6 dts:590400 dts_time:6.56 duration:0 duration_time:0 stream_index:0
[mpeg @ 0x55558d9e3700] buffer underflow st=0 bufi=849 size=9875
[mpeg @ 0x55558d9e3700] buffer underflow st=0 bufi=2890 size=9875
[mpeg @ 0x55558d9e3700] buffer underflow st=0 bufi=4931 size=9875
[mpeg @ 0x55558d9e3700] buffer underflow st=0 bufi=6972 size=9875
[mpeg @ 0x55558d9e3700] buffer underflow st=0 bufi=9013 size=9875
pts:597600 pts_time:6.64 dts:594000 dts_time:6.6 duration:0 duration_time:0 stream_index:0
[mpeg @ 0x55558d9e3700] buffer underflow st=0 bufi=1170 size=3435
[mpeg @ 0x55558d9e3700] buffer underflow st=0 bufi=3211 size=3435
pts:601200 pts_time:6.68 dts:597600 dts_time:6.64 duration:0 duration_time:0 stream_index:0
[mpeg @ 0x55558d9e3700] buffer underflow st=0 bufi=1808 size=2325
pts:604800 pts_time:6.72 dts:601200 dts_time:6.68 duration:0 duration_time:0 stream_index:0
[mpeg @ 0x55558d9e3700] buffer underflow st=0 bufi=1515 size=3058
pts:608400 pts_time:6.76 dts:604800 dts_time:6.72 duration:0 duration_time:0 stream_index:0
[mpeg @ 0x55558d9e3700] buffer underflow st=0 bufi=489 size=2889
[mpeg @ 0x55558d9e3700] buffer underflow st=0 bufi=2530 size=2889
pts:612000 pts_time:6.8 dts:608400 dts_time:6.76 duration:0 duration_time:0 stream_index:0
[mpeg @ 0x55558d9e3700] buffer underflow st=0 bufi=1673 size=1969
pts:615600 pts_time:6.84 dts:612000 dts_time:6.8 duration:0 duration_time:0 stream_index:0
[mpeg @ 0x55558d9e3700] buffer underflow st=0 bufi=1736 size=1776
pts:619200 pts_time:6.88 dts:615600 dts_time:6.84 duration:0 duration_time:0 stream_index:0
[mpeg @ 0x55558d9e3700] buffer underflow st=0 bufi=1992 size=3321
pts:622800 pts_time:6.92 dts:619200 dts_time:6.88 duration:0 duration_time:0 stream_index:0
[mpeg @ 0x55558d9e3700] buffer underflow st=0 bufi=703 size=2012
pts:626400 pts_time:6.96 dts:622800 dts_time:6.92 duration:0 duration_time:0 stream_index:0
[mpeg @ 0x55558d9e3700] buffer underflow st=0 bufi=723 size=2096
pts:630000 pts_time:7 dts:626400 dts_time:6.96 duration:0 duration_time:0 stream_index:0
[mpeg @ 0x55558d9e3700] buffer underflow st=0 bufi=659 size=2654
pts:633600 pts_time:7.04 dts:630000 dts_time:7 duration:0 duration_time:0 stream_index:0
[mpeg @ 0x55558d9e3700] buffer underflow st=0 bufi=37 size=1976
pts:637200 pts_time:7.08 dts:633600 dts_time:7.04 duration:0 duration_time:0 stream_index:0
[mpeg @ 0x55558d9e3700] buffer underflow st=0 bufi=93 size=10193
[mpeg @ 0x55558d9e3700] buffer underflow st=0 bufi=2134 size=10193
[mpeg @ 0x55558d9e3700] buffer underflow st=0 bufi=4175 size=10193
[mpeg @ 0x55558d9e3700] buffer underflow st=0 bufi=6216 size=10193
[mpeg @ 0x55558d9e3700] buffer underflow st=0 bufi=8257 size=10193
pts:640800 pts_time:7.12 dts:637200 dts_time:7.08 duration:0 duration_time:0 stream_index:0
[mpeg @ 0x55558d9e3700] buffer underflow st=0 bufi=96 size=3519
[mpeg @ 0x55558d9e3700] buffer underflow st=0 bufi=2137 size=3519
pts:644400 pts_time:7.16 dts:640800 dts_time:7.12 duration:0 duration_time:0 stream_index:0
[mpeg @ 0x55558d9e3700] buffer underflow st=0 bufi=650 size=3078
[mpeg @ 0x55558d9e3700] buffer underflow st=0 bufi=2691 size=3078
pts:648000 pts_time:7.2 dts:644400 dts_time:7.16 duration:0 duration_time:0 stream_index:0
[mpeg @ 0x55558d9e3700] buffer underflow st=0 bufi=1645 size=2833
pts:651600 pts_time:7.24 dts:648000 dts_time:7.2 duration:0 duration_time:0 stream_index:0
[mpeg @ 0x55558d9e3700] buffer underflow st=0 bufi=844 size=2306
pts:655200 pts_time:7.28 dts:651600 dts_time:7.24 duration:0 duration_time:0 stream_index:0
[mpeg @ 0x55558d9e3700] buffer underflow st=0 bufi=558 size=3368
[mpeg @ 0x55558d9e3700] buffer underflow st=0 bufi=2599 size=3368
pts:658800 pts_time:7.32 dts:655200 dts_time:7.28 duration:0 duration_time:0 stream_index:0
[mpeg @ 0x55558d9e3700] buffer underflow st=0 bufi=1263 size=1959
pts:662400 pts_time:7.36 dts:658800 dts_time:7.32 duration:0 duration_time:0 stream_index:0
[mpeg @ 0x55558d9e3700] buffer underflow st=0 bufi=1336 size=3061
pts:666000 pts_time:7.4 dts:662400 dts_time:7.36 duration:0 duration_time:0 stream_index:0
[mpeg @ 0x55558d9e3700] buffer underflow st=0 bufi=307 size=2803
[mpeg @ 0x55558d9e3700] buffer underflow st=0 bufi=2348 size=2803
pts:669600 pts_time:7.44 dts:666000 dts_time:7.4 duration:0 duration_time:0 stream_index:0
[mpeg @ 0x55558d9e3700] buffer underflow st=0 bufi=1577 size=2413
pts:673200 pts_time:7.48 dts:669600 dts_time:7.44 duration:0 duration_time:0 stream_index:0
[mpeg @ 0x55558d9e3700] buffer underflow st=0 bufi=1196 size=3005
pts:676800 pts_time:7.52 dts:673200 dts_time:7.48 duration:0 duration_time:0 stream_index:0
[mpeg @ 0x55558d9e3700] buffer underflow st=0 bufi=223 size=2675
[mpeg @ 0x55558d9e3700] buffer underflow st=0 bufi=2264 size=2675
pts:680400 pts_time:7.56 dts:676800 dts_time:7.52 duration:0 duration_time:0 stream_index:0
[mpeg @ 0x55558d9e3700] buffer underflow st=0 bufi=1621 size=10272
[mpeg @ 0x55558d9e3700] buffer underflow st=0 bufi=3662 size=10272
[mpeg @ 0x55558d9e3700] buffer underflow st=0 bufi=5703 size=10272
[mpeg @ 0x55558d9e3700] buffer underflow st=0 bufi=7744 size=10272
[mpeg @ 0x55558d9e3700] buffer underflow st=0 bufi=9785 size=10272
pts:684000 pts_time:7.6 dts:680400 dts_time:7.56 duration:0 duration_time:0 stream_index:0
[mpeg @ 0x55558d9e3700] buffer underflow st=0 bufi=1545 size=3911
[mpeg @ 0x55558d9e3700] buffer underflow st=0 bufi=3586 size=3911
pts:687600 pts_time:7.64 dts:684000 dts_time:7.6 duration:0 duration_time:0 stream_index:0
[mpeg @ 0x55558d9e3700] buffer underflow st=0 bufi=1707 size=3065
pts:691200 pts_time:7.68 dts:687600 dts_time:7.64 duration:0 duration_time:0 stream_index:0
[mpeg @ 0x55558d9e3700] buffer underflow st=0 bufi=674 size=1765
pts:694800 pts_time:7.72 dts:691200 dts_time:7.68 duration:0 duration_time:0 stream_index:0
[mpeg @ 0x55558d9e3700] buffer underflow st=0 bufi=941 size=1679
pts:698400 pts_time:7.76 dts:694800 dts_time:7.72 duration:0 duration_time:0 stream_index:0
[mpeg @ 0x55558d9e3700] buffer underflow st=0 bufi=1294 size=1978
pts:702000 pts_time:7.8 dts:698400 dts_time:7.76 duration:0 duration_time:0 stream_index:0
[mpeg @ 0x55558d9e3700] buffer underflow st=0 bufi=1348 size=2363
pts:705600 pts_time:7.84 dts:702000 dts_time:7.8 duration:0 duration_time:0 stream_index:0
[mpeg @ 0x55558d9e3700] buffer underflow st=0 bufi=1017 size=2632
pts:709200 pts_time:7.88 dts:705600 dts_time:7.84 duration:0 duration_time:0 stream_index:0
[mpeg @ 0x55558d9e3700] buffer underflow st=0 bufi=417 size=1686
pts:712800 pts_time:7.92 dts:709200 dts_time:7.88 duration:0 duration_time:0 stream_index:0
[mpeg @ 0x55558d9e3700] buffer underflow st=0 bufi=763 size=1658
pts:716400 pts_time:7.96 dts:712800 dts_time:7.92 duration:0 duration_time:0 stream_index:0
[mpeg @ 0x55558d9e3700] buffer underflow st=0 bufi=1137 size=2646
pts:720000 pts_time:8 dts:716400 dts_time:7.96 duration:0 duration_time:0 stream_index:0
[mpeg @ 0x55558d9e3700] buffer underflow st=0 bufi=523 size=1940
pts:723600 pts_time:8.04 dts:720000 dts_time:8 duration:0 duration_time:0 stream_index:0
[mpeg @ 0x55558d9e3700] buffer underflow st=0 bufi=615 size=10223
[mpeg @ 0x55558d9e3700] buffer underflow st=0 bufi=2656 size=10223
[mpeg @ 0x55558d9e3700] buffer underflow st=0 bufi=4697 size=10223
[mpeg @ 0x55558d9e3700] buffer underflow st=0 bufi=6738 size=10223
[mpeg @ 0x55558d9e3700] buffer underflow st=0 bufi=8779 size=10223
pts:727200 pts_time:8.08 dts:723600 dts_time:8.04 duration:0 duration_time:0 stream_index:0
[mpeg @ 0x55558d9e3700] buffer underflow st=0 bufi=588 size=3506
[mpeg @ 0x55558d9e3700] buffer underflow st=0 bufi=2629 size=3506
pts:730800 pts_time:8.12 dts:727200 dts_time:8.08 duration:0 duration_time:0 stream_index:0
[mpeg @ 0x55558d9e3700] buffer underflow st=0 bufi=1155 size=2711
pts:734400 pts_time:8.16 dts:730800 dts_time:8.12 duration:0 duration_time:0 stream_index:0
[mpeg @ 0x55558d9e3700] buffer underflow st=0 bufi=476 size=2018
pts:738000 pts_time:8.2 dts:734400 dts_time:8.16 duration:0 duration_time:0 stream_index:0
[mpeg @ 0x55558d9e3700] buffer underflow st=0 bufi=490 size=2552
[mpeg @ 0x55558d9e3700] buffer underflow st=0 bufi=2531 size=2552
pts:741600 pts_time:8.24 dts:738000 dts_time:8.2 duration:0 duration_time:0 stream_index:0
[mpeg @ 0x55558d9e3700] buffer underflow st=0 bufi=2011 size=2037
pts:745200 pts_time:8.28 dts:741600 dts_time:8.24 duration:0 duration_time:0 stream_index:0
pts:748800 pts_time:8.32 dts:745200 dts_time:8.28 duration:0 duration_time:0 stream_index:0
[mpeg @ 0x55558d9e3700] buffer underflow st=0 bufi=375 size=3061
[mpeg @ 0x55558d9e3700] buffer underflow st=0 bufi=2416 size=3061
pts:752400 pts_time:8.36 dts:748800 dts_time:8.32 duration:0 duration_time:0 stream_index:0
[mpeg @ 0x55558d9e3700] buffer underflow st=0 bufi=1387 size=1946
pts:756000 pts_time:8.4 dts:752400 dts_time:8.36 duration:0 duration_time:0 stream_index:0
[mpeg @ 0x55558d9e3700] buffer underflow st=0 bufi=1473 size=1912
pts:759600 pts_time:8.44 dts:756000 dts_time:8.4 duration:0 duration_time:0 stream_index:0
[mpeg @ 0x55558d9e3700] buffer underflow st=0 bufi=1593 size=2439
pts:763200 pts_time:8.48 dts:759600 dts_time:8.44 duration:0 duration_time:0 stream_index:0
[mpeg @ 0x55558d9e3700] buffer underflow st=0 bufi=1186 size=2195
pts:766800 pts_time:8.52 dts:763200 dts_time:8.48 duration:0 duration_time:0 stream_index:0
[mpeg @ 0x55558d9e3700] buffer underflow st=0 bufi=1023 size=9897
[mpeg @ 0x55558d9e3700] buffer underflow st=0 bufi=3064 size=9897
[mpeg @ 0x55558d9e3700] buffer underflow st=0 bufi=5105 size=9897
[mpeg @ 0x55558d9e3700] buffer underflow st=0 bufi=7146 size=9897
[mpeg @ 0x55558d9e3700] buffer underflow st=0 bufi=9187 size=9897
pts:770400 pts_time:8.56 dts:766800 dts_time:8.52 duration:0 duration_time:0 stream_index:0
[mpeg @ 0x55558d9e3700] buffer underflow st=0 bufi=1322 size=3071
pts:774000 pts_time:8.6 dts:770400 dts_time:8.56 duration:0 duration_time:0 stream_index:0
[mpeg @ 0x55558d9e3700] buffer underflow st=0 bufi=283 size=2620
[mpeg @ 0x55558d9e3700] buffer underflow st=0 bufi=2312 size=2620
pts:777600 pts_time:8.64 dts:774000 dts_time:8.6 duration:0 duration_time:0 stream_index:0
pts:781200 pts_time:8.68 dts:777600 dts_time:8.64 duration:0 duration_time:0 stream_index:0
[mpeg @ 0x55558d9e3700] buffer underflow st=0 bufi=80 size=2640
[mpeg @ 0x55558d9e3700] buffer underflow st=0 bufi=2121 size=2640
pts:784800 pts_time:8.72 dts:781200 dts_time:8.68 duration:0 duration_time:0 stream_index:0
pts:788400 pts_time:8.76 dts:784800 dts_time:8.72 duration:0 duration_time:0 stream_index:0
[mpeg @ 0x55558d9e3700] buffer underflow st=0 bufi=35 size=2513
[mpeg @ 0x55558d9e3700] buffer underflow st=0 bufi=2076 size=2513
pts:792000 pts_time:8.8 dts:788400 dts_time:8.76 duration:0 duration_time:0 stream_index:0
[mpeg @ 0x55558d9e3700] buffer underflow st=0 bufi=1595 size=2620
pts:795600 pts_time:8.84 dts:792000 dts_time:8.8 duration:0 duration_time:0 stream_index:0
[mpeg @ 0x55558d9e3700] buffer underflow st=0 bufi=1007 size=2167
pts:799200 pts_time:8.88 dts:795600 dts_time:8.84 duration:0 duration_time:0 stream_index:0
[mpeg @ 0x55558d9e3700] buffer underflow st=0 bufi=872 size=2082
pts:802800 pts_time:8.92 dts:799200 dts_time:8.88 duration:0 duration_time:0 stream_index:0
[mpeg @ 0x55558d9e3700] buffer underflow st=0 bufi=822 size=2745
pts:806400 pts_time:8.96 dts:802800 dts_time:8.92 duration:0 duration_time:0 stream_index:0
[mpeg @ 0x55558d9e3700] buffer underflow st=0 bufi=109 size=1932
pts:810000 pts_time:9 dts:806400 dts_time:8.96 duration:0 duration_time:0 stream_index:0
[mpeg @ 0x55558d9e3700] buffer underflow st=0 bufi=209 size=10032
[mpeg @ 0x55558d9e3700] buffer underflow st=0 bufi=2250 size=10032
[mpeg @ 0x55558d9e3700] buffer underflow st=0 bufi=4291 size=10032
[mpeg @ 0x55558d9e3700] buffer underflow st=0 bufi=6332 size=10032
[mpeg @ 0x55558d9e3700] buffer underflow st=0 bufi=8373 size=10032
pts:813600 pts_time:9.04 dts:810000 dts_time:9 duration:0 duration_time:0 stream_index:0
[mpeg @ 0x55558d9e3700] buffer underflow st=0 bufi=373 size=3021
[mpeg @ 0x55558d9e3700] buffer underflow st=0 bufi=2414 size=3021
pts:817200 pts_time:9.08 dts:813600 dts_time:9.04 duration:0 duration_time:0 stream_index:0
[mpeg @ 0x55558d9e3700] buffer underflow st=0 bufi=1425 size=2551
pts:820800 pts_time:9.12 dts:817200 dts_time:9.08 duration:0 duration_time:0 stream_index:0
[mpeg @ 0x55558d9e3700] buffer underflow st=0 bufi=906 size=2176
pts:824400 pts_time:9.16 dts:820800 dts_time:9.12 duration:0 duration_time:0 stream_index:0
[mpeg @ 0x55558d9e3700] buffer underflow st=0 bufi=762 size=2914
[mpeg @ 0x55558d9e3700] buffer underflow st=0 bufi=2803 size=2914
pts:828000 pts_time:9.2 dts:824400 dts_time:9.16 duration:0 duration_time:0 stream_index:0
[mpeg @ 0x55558d9e3700] buffer underflow st=0 bufi=1921 size=2413
pts:831600 pts_time:9.24 dts:828000 dts_time:9.2 duration:0 duration_time:0 stream_index:0
[mpeg @ 0x55558d9e3700] buffer underflow st=0 bufi=1540 size=1860
pts:835200 pts_time:9.28 dts:831600 dts_time:9.24 duration:0 duration_time:0 stream_index:0
[mpeg @ 0x55558d9e3700] buffer underflow st=0 bufi=1712 size=3303
pts:838800 pts_time:9.32 dts:835200 dts_time:9.28 duration:0 duration_time:0 stream_index:0
[mpeg @ 0x55558d9e3700] buffer underflow st=0 bufi=441 size=2926
[mpeg @ 0x55558d9e3700] buffer underflow st=0 bufi=2482 size=2926
pts:842400 pts_time:9.36 dts:838800 dts_time:9.32 duration:0 duration_time:0 stream_index:0
[mpeg @ 0x55558d9e3700] buffer underflow st=0 bufi=1588 size=2226
pts:846000 pts_time:9.4 dts:842400 dts_time:9.36 duration:0 duration_time:0 stream_index:0
[mpeg @ 0x55558d9e3700] buffer underflow st=0 bufi=1394 size=3104
pts:849600 pts_time:9.44 dts:846000 dts_time:9.4 duration:0 duration_time:0 stream_index:0
[mpeg @ 0x55558d9e3700] buffer underflow st=0 bufi=322 size=2682
[mpeg @ 0x55558d9e3700] buffer underflow st=0 bufi=2363 size=2682
pts:853200 pts_time:9.48 dts:849600 dts_time:9.44 duration:0 duration_time:0 stream_index:0
[mpeg @ 0x55558d9e3700] buffer underflow st=0 bufi=1713 size=10243
[mpeg @ 0x55558d9e3700] buffer underflow st=0 bufi=3754 size=10243
[mpeg @ 0x55558d9e3700] buffer underflow st=0 bufi=5795 size=10243
[mpeg @ 0x55558d9e3700] buffer underflow st=0 bufi=7836 size=10243
[mpeg @ 0x55558d9e3700] buffer underflow st=0 bufi=9877 size=10243
pts:856800 pts_time:9.52 dts:853200 dts_time:9.48 duration:0 duration_time:0 stream_index:0
[mpeg @ 0x55558d9e3700] buffer underflow st=0 bufi=1666 size=3804
[mpeg @ 0x55558d9e3700] buffer underflow st=0 bufi=3707 size=3804
pts:860400 pts_time:9.56 dts:856800 dts_time:9.52 duration:0 duration_time:0 stream_index:0
[mpeg @ 0x55558d9e3700] buffer underflow st=0 bufi=1935 size=3227
pts:864000 pts_time:9.6 dts:860400 dts_time:9.56 duration:0 duration_time:0 stream_index:0
[mpeg @ 0x55558d9e3700] buffer underflow st=0 bufi=740 size=2111
pts:867600 pts_time:9.64 dts:864000 dts_time:9.6 duration:0 duration_time:0 stream_index:0
[mpeg @ 0x55558d9e3700] buffer underflow st=0 bufi=661 size=3132
[mpeg @ 0x55558d9e3700] buffer underflow st=0 bufi=2702 size=3132
pts:871200 pts_time:9.68 dts:867600 dts_time:9.64 duration:0 duration_time:0 stream_index:0
[mpeg @ 0x55558d9e3700] buffer underflow st=0 bufi=1602 size=2545
pts:874800 pts_time:9.72 dts:871200 dts_time:9.68 duration:0 duration_time:0 stream_index:0
[mpeg @ 0x55558d9e3700] buffer underflow st=0 bufi=1089 size=2070
pts:878400 pts_time:9.76 dts:874800 dts_time:9.72 duration:0 duration_time:0 stream_index:0
[mpeg @ 0x55558d9e3700] buffer underflow st=0 bufi=1051 size=3328
[mpeg @ 0x55558d9e3700] buffer underflow st=0 bufi=3092 size=3328
pts:882000 pts_time:9.8 dts:878400 dts_time:9.76 duration:0 duration_time:0 stream_index:0
pts:885600 pts_time:9.84 dts:882000 dts_time:9.8 duration:0 duration_time:0 stream_index:0
[mpeg @ 0x55558d9e3700] buffer underflow st=0 bufi=127 size=2133
pts:889200 pts_time:9.88 dts:885600 dts_time:9.84 duration:0 duration_time:0 stream_index:0
[mpeg @ 0x55558d9e3700] buffer underflow st=0 bufi=26 size=2949
[mpeg @ 0x55558d9e3700] buffer underflow st=0 bufi=2067 size=2949
pts:892800 pts_time:9.92 dts:889200 dts_time:9.88 duration:0 duration_time:0 stream_index:0
[mpeg @ 0x55558d9e3700] buffer underflow st=0 bufi=1150 size=2137
[mpeg @ 0x55558d9e3700] buffer underflow st=0 bufi=1045 size=10093
[mpeg @ 0x55558d9e3700] buffer underflow st=0 bufi=3086 size=10093
[mpeg @ 0x55558d9e3700] buffer underflow st=0 bufi=5127 size=10093
[mpeg @ 0x55558d9e3700] buffer underflow st=0 bufi=7156 size=10093
[mpeg @ 0x55558d9e3700] buffer underflow st=0 bufi=9197 size=10093
pts:896400 pts_time:9.96 dts:892800 dts_time:9.92 duration:0 duration_time:0 stream_index:0
pts:900000 pts_time:10 dts:896400 dts_time:9.96 duration:0 duration_time:0 stream_index:0
